{"title":"The Lone Ranger 2013 DVD9rip English Klam","uid":9262397,"size":2523054940,"categoryP":"video","categoryS":"movies","magnet":"?xt=urn:btih:a064ba0b587453a139f4516f3a524daaa64df33b&amp;dn=The+Lone+Ranger+2013+DVD9rip+English+Klam&amp;tr=udp%3A%2F%2Ftracker.openbittorrent.com%3A80&amp;tr=udp%3A%2F%2Fopen.demonii.com%3A1337&amp;tr=udp%3A%2F%2Ftracker.coppersurfer.tk%3A6969&amp;tr=udp%3A%2F%2Fexodus.desync.com%3A6969","seeders":5,"leechers":3,"uploader":"Klambake","files":-1,"time":1385599498,"description":"With: Armie Hammer, Johnny Depp and Helena Bonham Carter\n\nJohn Reid (Armie Hammer) is een man van de wet die zich heeft omgevormd tot The Lone Ranger, de gemaskerde legende van rechtvaardigheid. Samen met zijn Indiaanse compagnon Tonto (Johnny Depp) bestrijdt hij hebzucht en corruptie. Beide onwaarschijnlijke helden zullen ook met elkaar moeten leren samenwerken.\n\nNative American warrior Tonto recounts the untold tales that transformed John Reid, a man of the law, into a legend of justice. \n &lt;a href=&quot;\nhttp://www.imdb.com/title/tt1210819&quot; rel=&quot;nofollow&quot; target=&quot;_NEW&quot;&gt;\nhttp://www.imdb.com/title/tt1210819&lt;/a&gt;\t\n\n--------------------- Dutch Friends 4ever ---------------------\n---------------------------------------------------------------\n- Bezoek ook eens mijn vrienden op: &lt;a href=&quot; http://www.Film-Test.nl&quot; rel=&quot;nofollow&quot; target=&quot;_NEW&quot;&gt; http://www.Film-Test.nl&lt;/a&gt; --\n----- voor mijn Nederlandse Sync. ondertitels ---- en meer ----\n------- http://www.Film-Test.nl ---- Over Films en meer -------\n---------------------------------------------------------------\n\nGeneral:\n\nComplete name                    : The Lone RangerThe Lone Ranger.avi\nFormat                           : AVI\nFormat/Info                      : Audio Video Interleave\nFile size                        : 2.35 GiB\nDuration                         : 2h 23mn\nOverall bit rate                 : 2 346 Kbps\n\nVideo:\n\nFormat                           : MPEG-4 Visual\nFormat profile                   : Simple@L3\nFormat settings, BVOP            : No\nFormat settings, QPel            : No\nFormat settings, GMC             : No warppoints\nFormat settings, Matrix          : Default (H.263)\nCodec ID                         : XVID\nCodec ID/Hint                    : XviD\nDuration                         : 2h 23mn\nBit rate                         : 1 951 Kbps\nWidth                            : 720 pixels\nHeight                           : 304 pixels\nDisplay aspect ratio             : 2.35:1\nFrame rate                       : 25.000 fps\nColor space                      : YUV\nChroma subsampling               : 4:2:0\nBit depth                        : 8 bits\nScan type                        : Progressive\nCompression mode                 : Lossy\nBits/(Pixel*Frame)               : 0.356\nStream size                      : 1.95 GiB (83%)\nWriting library                  : XviD 1.1.2 (UTC 2006-11-01)\n\nAudio:\n\nFormat                           : AC-3\nFormat/Info                      : Audio Coding 3\nMode extension                   : CM (complete main)\nCodec ID                         : 2000\nDuration                         : 2h 23mn\nBit rate mode                    : Constant\nBit rate                         : 384 Kbps\nChannel(s)                       : 6 channels\nChannel positions                : Front: L C R, Side: L R, LFE\nSampling rate                    : 48.0 KHz\nBit depth                        : 16 bits\nCompression mode                 : Lossy\nStream size                      : 394 MiB (16%)\nAlignment                        : Aligned on interleaves\nInterleave, duration             : 32 ms (0.80 video frame)","torrent":{"xt":"urn:btih:a064ba0b587453a139f4516f3a524daaa64df33b","amp;dn":"The+Lone+Ranger+2013+DVD9rip+English+Klam","amp;tr":["udp%3A%2F%2Ftracker.openbittorrent.com%3A80","udp%3A%2F%2Fopen.demonii.com%3A1337","udp%3A%2F%2Ftracker.coppersurfer.tk%3A6969","udp%3A%2F%2Fexodus.desync.com%3A6969"],"infoHash":"a064ba0b587453a139f4516f3a524daaa64df33b","infoHashBuffer":{"type":"Buffer","data":[160,100,186,11,88,116,83,161,57,244,81,111,58,82,77,170,166,77,243,59]},"announce":[],"urlList":[]}}